HIERARCHY
ROOT mug1
{
	OFFSET 0.000000 0.000000 0.000000
	CHANNELS 6 Xposition Yposition Zposition Yrotation Xrotation Zrotation
	End Site
	{
		OFFSET 0.000000 0.000000 0.000000
	}
}
MOTION
Frames: 86
Frame Time: 0.008333334
2.283466 3.476684 2.592088 -49.935880 -0.837311 2.139009 
2.284046 3.476750 2.592870 -49.906830 -0.886078 2.100746 
2.284796 3.476975 2.593452 -49.921690 -0.873840 2.088600 
2.285182 3.477041 2.593769 -49.917720 -0.891968 2.070870 
2.284334 3.476933 2.593955 -49.925510 -0.846283 2.069531 
2.283537 3.476956 2.593727 -49.914790 -0.852997 2.103946 
2.282674 3.477077 2.593647 -49.898320 -0.814362 2.123734 
2.281853 3.477121 2.593200 -49.878940 -0.778595 2.141211 
2.281665 3.477066 2.592734 -49.905550 -0.755493 2.179164 
2.282227 3.476892 2.592375 -49.916200 -0.784546 2.164445 
2.282916 3.476711 2.592129 -49.940280 -0.842865 2.138778 
2.283576 3.476645 2.591810 -49.948700 -0.869934 2.125588 
2.283987 3.476494 2.591583 -49.949620 -0.909363 2.111760 
2.283819 3.476558 2.591428 -49.948940 -0.860931 2.115888 
2.283595 3.476664 2.591318 -49.946870 -0.827820 2.127171 
2.283056 3.476691 2.591331 -49.944270 -0.815888 2.138700 
2.282627 3.476619 2.591360 -49.938660 -0.851440 2.146605 
2.282045 3.476805 2.591435 -49.938930 -0.815338 2.159619 
2.281982 3.476809 2.591454 -49.935610 -0.829712 2.155406 
2.281996 3.476945 2.591330 -49.931550 -0.816620 2.158987 
2.282284 3.476753 2.591299 -49.939030 -0.858246 2.155538 
2.282514 3.476698 2.591131 -49.943080 -0.850555 2.156919 
2.282763 3.476657 2.590986 -49.960540 -0.867798 2.142411 
2.282904 3.476694 2.590519 -49.949100 -0.878571 2.150417 
2.283118 3.476705 2.590138 -49.949130 -0.812897 2.138838 
2.283005 3.476430 2.589619 -49.957150 -0.908386 2.152201 
2.282929 3.476472 2.589284 -49.959720 -0.921692 2.153731 
2.282751 3.476498 2.588659 -49.933470 -0.917572 2.160353 
2.282452 3.476649 2.588273 -49.923190 -0.888733 2.170734 
2.281810 3.476704 2.587892 -49.959810 -0.796265 2.196548 
2.281281 3.476849 2.587574 -49.936100 -0.811768 2.215430 
2.281497 3.476851 2.587577 -49.939700 -0.826080 2.215442 
2.281814 3.476504 2.587484 -49.942960 -0.839752 2.180187 
2.282622 3.476574 2.587551 -49.934300 -0.894104 2.162748 
2.283115 3.476572 2.587772 -49.946780 -0.933441 2.160129 
2.283160 3.476558 2.588018 -49.947240 -0.940826 2.152777 
2.282786 3.476587 2.588351 -49.931430 -0.903931 2.163239 
2.282222 3.476773 2.588682 -49.931670 -0.878510 2.182513 
2.281660 3.476885 2.589049 -49.946900 -0.846710 2.176343 
2.281520 3.476930 2.589424 -49.946530 -0.829620 2.196102 
2.281787 3.476752 2.589786 -49.948490 -0.807739 2.164172 
2.282212 3.476572 2.589802 -49.955810 -0.846161 2.167715 
2.282612 3.476539 2.589815 -49.959560 -0.877045 2.153807 
2.282889 3.476535 2.589745 -49.961670 -0.867096 2.145985 
2.283094 3.476431 2.589683 -49.965580 -0.912018 2.128241 
2.283093 3.476472 2.589439 -49.958890 -0.897614 2.137358 
2.282888 3.476518 2.589250 -49.958920 -0.899933 2.143103 
2.282573 3.476586 2.588928 -49.958500 -0.897247 2.151316 
2.282257 3.476565 2.588777 -49.955570 -0.877441 2.165469 
2.281960 3.476653 2.588516 -49.957280 -0.867493 2.191606 
2.281704 3.476801 2.588134 -49.932040 -0.824371 2.216578 
2.281851 3.476667 2.588167 -49.952880 -0.847778 2.218477 
2.282291 3.476842 2.587953 -49.921300 -0.838440 2.206423 
2.282471 3.476722 2.588007 -49.925140 -0.852539 2.173659 
2.282761 3.476587 2.588025 -49.930730 -0.873413 2.177727 
2.282725 3.476552 2.588078 -49.931760 -0.861267 2.185044 
2.282753 3.476614 2.588358 -49.943120 -0.903259 2.189394 
2.282461 3.476556 2.588711 -49.959900 -0.904114 2.164769 
2.282446 3.476669 2.588841 -49.936220 -0.890961 2.182545 
2.282174 3.476599 2.589149 -49.947910 -0.874451 2.178654 
2.282033 3.476657 2.589366 -49.946840 -0.862610 2.180353 
2.282040 3.476672 2.589460 -49.943760 -0.846863 2.179433 
2.282140 3.476649 2.589501 -49.946290 -0.842285 2.177506 
2.282331 3.476614 2.589414 -49.944790 -0.872589 2.178873 
2.282392 3.476551 2.589412 -49.951510 -0.857971 2.173213 
2.282566 3.476709 2.589199 -49.927250 -0.863800 2.190070 
2.282418 3.476590 2.589218 -49.950260 -0.859497 2.173520 
2.282368 3.476580 2.589096 -49.949950 -0.855988 2.173548 
2.282266 3.476654 2.588796 -49.942810 -0.865356 2.185206 
2.282341 3.476702 2.588635 -49.925290 -0.860077 2.200715 
2.282264 3.476770 2.588409 -49.920140 -0.829498 2.201523 
2.282225 3.476782 2.588379 -49.928860 -0.832245 2.205080 
2.282252 3.476778 2.588260 -49.920780 -0.840363 2.196981 
2.282369 3.476653 2.588375 -49.921230 -0.861237 2.199095 
2.282419 3.476694 2.588335 -49.915500 -0.858521 2.200500 
2.282444 3.476723 2.588345 -49.913020 -0.828033 2.201404 
2.282261 3.476542 2.588634 -49.952300 -0.843140 2.168422 
2.282302 3.476553 2.588691 -49.942600 -0.860535 2.180838 
2.282267 3.476518 2.588941 -49.955200 -0.862579 2.176606 
2.282292 3.476758 2.588804 -49.926270 -0.863770 2.200337 
2.282102 3.476870 2.588689 -49.917660 -0.837494 2.208088 
2.281603 3.476644 2.588952 -49.968140 -0.841003 2.193528 
2.281639 3.476749 2.588728 -49.938570 -0.839569 2.223651 
2.281731 3.476796 2.588499 -49.928220 -0.805512 2.214823 
2.281866 3.476848 2.588212 -49.929500 -0.830994 2.214871 
2.281980 3.476516 2.587872 -49.935700 -0.856140 2.202286 
